<mxfile host="app.diagrams.net" agent="Mozilla/5.0 (Windows NT 10.0; Win64; x64) AppleWebKit/537.36 (KHTML, like Gecko) Chrome/127.0.0.0 Safari/537.36" version="24.7.17">
  <diagram name="Page-1" id="UCcJz2lOJOK9D-MnXQc0">
    <mxGraphModel dx="1434" dy="780" grid="1" gridSize="10" guides="1" tooltips="1" connect="1" arrows="1" fold="1" page="1" pageScale="1" pageWidth="850" pageHeight="1100" math="0" shadow="0">
      <root>
        <mxCell id="0" />
        <mxCell id="1" parent="0" />
        <mxCell id="fNQLoPH08MSTCBShHtuU-1" value="TransactionType" style="swimlane;fontStyle=0;childLayout=stackLayout;horizontal=1;startSize=26;fillColor=none;horizontalStack=0;resizeParent=1;resizeParentMax=0;resizeLast=0;collapsible=1;marginBottom=0;whiteSpace=wrap;html=1;" vertex="1" parent="1">
          <mxGeometry x="40" y="40" width="200" height="78" as="geometry" />
        </mxCell>
        <mxCell id="fNQLoPH08MSTCBShHtuU-2" value="+&amp;nbsp;DEPOSIT" style="text;strokeColor=none;fillColor=none;align=left;verticalAlign=top;spacingLeft=4;spacingRight=4;overflow=hidden;rotatable=0;points=[[0,0.5],[1,0.5]];portConstraint=eastwest;whiteSpace=wrap;html=1;" vertex="1" parent="fNQLoPH08MSTCBShHtuU-1">
          <mxGeometry y="26" width="200" height="26" as="geometry" />
        </mxCell>
        <mxCell id="fNQLoPH08MSTCBShHtuU-3" value="&lt;span class=&quot;hljs-operator&quot;&gt;+&lt;/span&gt; WITHDRAWAL&amp;nbsp;" style="text;strokeColor=none;fillColor=none;align=left;verticalAlign=top;spacingLeft=4;spacingRight=4;overflow=hidden;rotatable=0;points=[[0,0.5],[1,0.5]];portConstraint=eastwest;whiteSpace=wrap;html=1;" vertex="1" parent="fNQLoPH08MSTCBShHtuU-1">
          <mxGeometry y="52" width="200" height="26" as="geometry" />
        </mxCell>
        <mxCell id="fNQLoPH08MSTCBShHtuU-5" value=" PersonalAccount" style="swimlane;fontStyle=0;childLayout=stackLayout;horizontal=1;startSize=26;fillColor=none;horizontalStack=0;resizeParent=1;resizeParentMax=0;resizeLast=0;collapsible=1;marginBottom=0;whiteSpace=wrap;html=1;" vertex="1" parent="1">
          <mxGeometry x="520" y="40" width="260" height="350" as="geometry" />
        </mxCell>
        <mxCell id="fNQLoPH08MSTCBShHtuU-6" value="&lt;span class=&quot;hljs-operator&quot;&gt;-&lt;/span&gt; accountNumber: &lt;span class=&quot;hljs-type&quot;&gt;int&lt;/span&gt;&amp;nbsp;&lt;div&gt;&lt;span class=&quot;hljs-operator&quot;&gt;&lt;br&gt;&lt;/span&gt;&lt;/div&gt;&lt;div&gt;&lt;span class=&quot;hljs-operator&quot;&gt;-&lt;/span&gt; accountHolder: String&lt;br&gt;&lt;span class=&quot;hljs-operator&quot;&gt;&lt;br&gt;&lt;/span&gt;&lt;div&gt;&lt;span class=&quot;hljs-operator&quot;&gt;-&lt;/span&gt; balance: &lt;span class=&quot;hljs-keyword&quot;&gt;double&lt;/span&gt;&lt;div&gt;&lt;span class=&quot;hljs-operator&quot;&gt;&lt;br&gt;&lt;/span&gt;&lt;/div&gt;&lt;div&gt;&lt;span class=&quot;hljs-operator&quot;&gt;-&lt;/span&gt; transactions: List&lt;span class=&quot;hljs-operator&quot;&gt;&amp;lt;&lt;/span&gt;Amount&lt;span class=&quot;hljs-operator&quot;&gt;&amp;gt;&lt;/span&gt;&amp;nbsp;&lt;div&gt;&lt;span class=&quot;hljs-operator&quot;&gt;&lt;br&gt;&lt;/span&gt;&lt;/div&gt;&lt;div&gt;&lt;span class=&quot;hljs-operator&quot;&gt;+&lt;/span&gt; PersonalAccount(&lt;span class=&quot;hljs-type&quot;&gt;int&lt;/span&gt;, String)&lt;div&gt;&lt;span class=&quot;hljs-operator&quot;&gt;&lt;br&gt;&lt;/span&gt;&lt;/div&gt;&lt;div&gt;&lt;span class=&quot;hljs-operator&quot;&gt;+&lt;/span&gt; deposit(&lt;span class=&quot;hljs-keyword&quot;&gt;double&lt;/span&gt;): void&lt;div&gt;&lt;span class=&quot;hljs-operator&quot;&gt;&lt;br&gt;&lt;/span&gt;&lt;/div&gt;&lt;div&gt;&lt;span class=&quot;hljs-operator&quot;&gt;+&lt;/span&gt; withdraw(&lt;span class=&quot;hljs-keyword&quot;&gt;double&lt;/span&gt;): void&lt;div&gt;&lt;span class=&quot;hljs-operator&quot;&gt;&lt;br&gt;&lt;/span&gt;&lt;/div&gt;&lt;div&gt;&lt;span class=&quot;hljs-operator&quot;&gt;+&lt;/span&gt; printTransactionHistory(): void&lt;div&gt;&lt;span class=&quot;hljs-operator&quot;&gt;&lt;br&gt;&lt;/span&gt;&lt;/div&gt;&lt;div&gt;&lt;span class=&quot;hljs-operator&quot;&gt;+&lt;/span&gt; getBalance(): &lt;span class=&quot;hljs-keyword&quot;&gt;double&lt;/span&gt;&lt;div&gt;&lt;span class=&quot;hljs-operator&quot;&gt;&lt;br&gt;&lt;/span&gt;&lt;/div&gt;&lt;div&gt;&lt;span class=&quot;hljs-operator&quot;&gt;+&lt;/span&gt; getAccountNumber(): &lt;span class=&quot;hljs-type&quot;&gt;int&lt;/span&gt;&lt;div&gt;&lt;span class=&quot;hljs-operator&quot;&gt;&lt;br&gt;&lt;/span&gt;&lt;/div&gt;&lt;div&gt;&lt;span class=&quot;hljs-operator&quot;&gt;+&lt;/span&gt; getAccountHolder(): String&lt;/div&gt;&lt;/div&gt;&lt;/div&gt;&lt;/div&gt;&lt;/div&gt;&lt;/div&gt;&lt;/div&gt;&lt;/div&gt;&lt;/div&gt;&lt;/div&gt;" style="text;strokeColor=none;fillColor=none;align=left;verticalAlign=top;spacingLeft=4;spacingRight=4;overflow=hidden;rotatable=0;points=[[0,0.5],[1,0.5]];portConstraint=eastwest;whiteSpace=wrap;html=1;" vertex="1" parent="fNQLoPH08MSTCBShHtuU-5">
          <mxGeometry y="26" width="260" height="324" as="geometry" />
        </mxCell>
        <mxCell id="fNQLoPH08MSTCBShHtuU-9" value="Amount" style="swimlane;fontStyle=0;childLayout=stackLayout;horizontal=1;startSize=26;fillColor=none;horizontalStack=0;resizeParent=1;resizeParentMax=0;resizeLast=0;collapsible=1;marginBottom=0;whiteSpace=wrap;html=1;" vertex="1" parent="1">
          <mxGeometry x="270" y="40" width="230" height="170" as="geometry" />
        </mxCell>
        <mxCell id="fNQLoPH08MSTCBShHtuU-10" value="&lt;span class=&quot;hljs-operator&quot;&gt;-&lt;/span&gt; amount: &lt;span class=&quot;hljs-keyword&quot;&gt;double&lt;/span&gt;" style="text;strokeColor=none;fillColor=none;align=left;verticalAlign=top;spacingLeft=4;spacingRight=4;overflow=hidden;rotatable=0;points=[[0,0.5],[1,0.5]];portConstraint=eastwest;whiteSpace=wrap;html=1;" vertex="1" parent="fNQLoPH08MSTCBShHtuU-9">
          <mxGeometry y="26" width="230" height="26" as="geometry" />
        </mxCell>
        <mxCell id="fNQLoPH08MSTCBShHtuU-11" value="&lt;span class=&quot;hljs-operator&quot;&gt;-&lt;/span&gt; transactionType: TransactionType" style="text;strokeColor=none;fillColor=none;align=left;verticalAlign=top;spacingLeft=4;spacingRight=4;overflow=hidden;rotatable=0;points=[[0,0.5],[1,0.5]];portConstraint=eastwest;whiteSpace=wrap;html=1;" vertex="1" parent="fNQLoPH08MSTCBShHtuU-9">
          <mxGeometry y="52" width="230" height="26" as="geometry" />
        </mxCell>
        <mxCell id="fNQLoPH08MSTCBShHtuU-12" value="&lt;span class=&quot;hljs-operator&quot;&gt;+&lt;/span&gt; Amount(&lt;span class=&quot;hljs-keyword&quot;&gt;double&lt;/span&gt;, TransactionType)&lt;div&gt;&lt;br&gt;&lt;div&gt;&lt;span style=&quot;background-color: initial;&quot; class=&quot;hljs-operator&quot;&gt;+&lt;/span&gt;&lt;span style=&quot;background-color: initial;&quot;&gt; getAmount(): &lt;/span&gt;&lt;span style=&quot;background-color: initial;&quot; class=&quot;hljs-keyword&quot;&gt;double&lt;/span&gt;&lt;/div&gt;&lt;div&gt;&lt;span style=&quot;background-color: initial;&quot;&gt;&amp;nbsp;&lt;/span&gt;&lt;/div&gt;&lt;div&gt;&lt;span style=&quot;background-color: initial;&quot; class=&quot;hljs-operator&quot;&gt;+&amp;nbsp;&lt;/span&gt;&lt;span style=&quot;background-color: initial;&quot;&gt;getTransactionType(): TransactionType&lt;/span&gt;&lt;br&gt;&lt;/div&gt;&lt;/div&gt;" style="text;strokeColor=none;fillColor=none;align=left;verticalAlign=top;spacingLeft=4;spacingRight=4;overflow=hidden;rotatable=0;points=[[0,0.5],[1,0.5]];portConstraint=eastwest;whiteSpace=wrap;html=1;" vertex="1" parent="fNQLoPH08MSTCBShHtuU-9">
          <mxGeometry y="78" width="230" height="92" as="geometry" />
        </mxCell>
      </root>
    </mxGraphModel>
  </diagram>
</mxfile>
